<svg id="Capa_1" enable-background="new 0 0 512 512" height="512" viewBox="0 0 512 512" width="512" xmlns="http://www.w3.org/2000/svg"><g id="barcode_2_"><g><path d="m467 391h-422c-8.284 0-15-6.716-15-15v-240c0-8.284 6.716-15 15-15h422c8.284 0 15 6.716 15 15v240c0 8.284-6.716 15-15 15zm-407-30h392v-210h-392z"/></g><g><path d="m136 331c-8.284 0-15-6.716-15-15v-120c0-8.284 6.716-15 15-15s15 6.716 15 15v120c0 8.284-6.716 15-15 15z"/></g><g><path d="m196 271c-8.284 0-15-6.716-15-15v-60c0-8.284 6.716-15 15-15s15 6.716 15 15v60c0 8.284-6.716 15-15 15z"/></g><g><path d="m256 271c-8.284 0-15-6.716-15-15v-60c0-8.284 6.716-15 15-15s15 6.716 15 15v60c0 8.284-6.716 15-15 15z"/></g><g><path d="m316 271c-8.284 0-15-6.716-15-15v-60c0-8.284 6.716-15 15-15s15 6.716 15 15v60c0 8.284-6.716 15-15 15z"/></g><g><path d="m376 331c-8.284 0-15-6.716-15-15v-120c0-8.284 6.716-15 15-15s15 6.716 15 15v120c0 8.284-6.716 15-15 15z"/></g><g><circle cx="196" cy="316" r="15"/></g><g><circle cx="256" cy="316" r="15"/></g><g><circle cx="316" cy="316" r="15"/></g><g><path d="m15 91c-8.284 0-15-6.716-15-15v-30c0-8.284 6.716-15 15-15h60c8.284 0 15 6.716 15 15s-6.716 15-15 15h-45v15c0 8.284-6.716 15-15 15z"/></g><g><path d="m497 91c-8.284 0-15-6.716-15-15v-15h-45c-8.284 0-15-6.716-15-15s6.716-15 15-15h60c8.284 0 15 6.716 15 15v30c0 8.284-6.716 15-15 15z"/></g><g><path d="m497 481h-60c-8.284 0-15-6.716-15-15s6.716-15 15-15h45v-15c0-8.284 6.716-15 15-15s15 6.716 15 15v30c0 8.284-6.716 15-15 15z"/></g><g><path d="m75 481h-60c-8.284 0-15-6.716-15-15v-30c0-8.284 6.716-15 15-15s15 6.716 15 15v15h45c8.284 0 15 6.716 15 15s-6.716 15-15 15z"/></g></g></svg>